<svg width="40" height="40" viewBox="0 0 40 40" fill="none" xmlns="http://www.w3.org/2000/svg">
  <!-- Scorpion body -->
  <path d="M20 5C11.7157 5 5 11.7157 5 20C5 28.2843 11.7157 35 20 35C28.2843 35 35 28.2843 35 20C35 11.7157 28.2843 5 20 5Z" fill="#4361EE"/>
  <!-- Scorpion shape -->
  <path d="M25 15C25 16.6569 23.6569 18 22 18C20.3431 18 19 16.6569 19 15C19 13.3431 20.3431 12 22 12C23.6569 12 25 13.3431 25 15Z" fill="white"/>
  <path d="M15 20C15 21.6569 13.6569 23 12 23C10.3431 23 9 21.6569 9 20C9 18.3431 10.3431 17 12 17C13.6569 17 15 18.3431 15 20Z" fill="white"/>
  <path d="M31 20C31 21.6569 29.6569 23 28 23C26.3431 23 25 21.6569 25 20C25 18.3431 26.3431 17 28 17C29.6569 17 31 18.3431 31 20Z" fill="white"/>
  <path d="M20 25C20 26.6569 18.6569 28 17 28C15.3431 28 14 26.6569 14 25C14 23.3431 15.3431 22 17 22C18.6569 22 20 23.3431 20 25Z" fill="white"/>
  <path d="M26 25C26 26.6569 24.6569 28 23 28C21.3431 28 20 26.6569 20 25C20 23.3431 21.3431 22 23 22C24.6569 22 26 23.3431 26 25Z" fill="white"/>
  <path d="M17 18L20 15L23 18L20 21L17 18Z" fill="white"/>
  <path d="M20 21L17 24L20 27L23 24L20 21Z" fill="white"/>
</svg>
